<svg xmlns="http://www.w3.org/2000/svg" viewBox="0 0 48 48" role="img" aria-label="GitHub icon">
  <circle cx="24" cy="24" r="24" fill="#24292f"/>
  <path fill="#ffffff" d="M16.5 34.7c.7.1 1-.3 1-0.7v-3.5c-3.5.7-4.3-1.5-4.3-1.5-.6-1.3-1.5-1.7-1.5-1.7-1.3-.9.1-.9.1-.9 1.4.1 2.1 1.5 2.1 1.5 1.2 2 3.1 1.4 3.8 1.1.1-.9.5-1.4.9-1.8-2.8-.3-5.8-1.4-5.8-6.2 0-1.4.5-2.5 1.3-3.4-.1-.3-.6-1.7.1-3.6 0 0 1.1-.3 3.6 1.3 1.1-.3 2.3-.4 3.5-.4s2.4.1 3.5.4c2.5-1.6 3.6-1.3 3.6-1.3.7 1.9.3 3.3.1 3.6.8.9 1.3 2 1.3 3.4 0 4.9-3 5.9-5.8 6.2.5.4.9 1.2.9 2.4v3.6c0 .4.3.8 1 .7 5.8-2 10-7.5 10-14 0-8.1-6.6-14.7-14.7-14.7S9.3 11.9 9.3 20c0 6.5 4.2 12 10 14z"/>
</svg>
