<svg xmlns="http://www.w3.org/2000/svg" viewBox="0 0 48 48" role="img" aria-label="Seguro catastrófico icon">
  <defs>
    <linearGradient id="seguro-catastrofico-gradient" x1="0%" y1="0%" x2="100%" y2="100%">
      <stop offset="0%" stop-color="#4a90e2"/>
      <stop offset="100%" stop-color="#174f9a"/>
    </linearGradient>
  </defs>
  <rect width="48" height="48" rx="10" fill="url(#seguro-catastrofico-gradient)"/>
  <path fill="#ffffff" d="M24 9c-4.3 3.4-9.1 3.8-12.4 3.8-.8 0-1.6 0-2.3-.1-.2 10.1 2.7 16.7 6 20.6 2.6 3.1 5.4 4.7 7 5.4.4.2.9.2 1.3 0 1.6-.7 4.4-2.3 7-5.4 3.3-3.9 6.2-10.5 6-20.6-.7.1-1.5.1-2.3.1C33.1 12.8 28.3 12.4 24 9zm0 6.2c2.9 2.3 6 2.6 8.2 2.6h.7c-.4 7.5-2.6 12.2-4.9 14.8-1.7 2-3.5 3.2-4.4 3.6-.9-.4-2.7-1.6-4.4-3.6-2.3-2.6-4.5-7.3-4.9-14.8h.7c2.2 0 5.3-.2 8.2-2.6zm-2.2 4.3c-.8 0-1.5.7-1.5 1.5v6.5c0 .8.7 1.5 1.5 1.5h4.4c.8 0 1.5-.7 1.5-1.5v-6.5c0-.8-.7-1.5-1.5-1.5h-4.4zm1.4 2.3h1.6c.3 0 .5.2.5.5v3.9c0 .3-.2.5-.5.5h-1.6c-.3 0-.5-.2-.5-.5v-3.9c0-.3.2-.5.5-.5z"/>
</svg>
