<svg xmlns="http://www.w3.org/2000/svg" viewBox="0 0 48 48" role="img" aria-label="Seguro auto icon">
  <defs>
    <linearGradient id="seguro-auto-gradient" x1="0%" y1="0%" x2="100%" y2="100%">
      <stop offset="0%" stop-color="#00acc1"/>
      <stop offset="100%" stop-color="#006064"/>
    </linearGradient>
  </defs>
  <rect width="48" height="48" rx="10" fill="url(#seguro-auto-gradient)"/>
  <path fill="#ffffff" d="M13.5 20.5c-.9 0-1.5.6-1.5 1.5v7c0 1.7 1.3 3 3 3h1.3c.3 2 2 3.5 4.1 3.5s3.8-1.5 4.1-3.5h5c.3 2 2 3.5 4.1 3.5s3.8-1.5 4.1-3.5H38c1.7 0 3-1.3 3-3v-4.4c0-.7-.4-1.4-1-1.7l-2.7-1.4-2.2-5.1c-.4-.9-1.2-1.5-2.2-1.5h-8c-1 0-1.8.6-2.2 1.5l-2.2 5.1h-7.5zm6.9 0l1.5-3.5h7.2l1.5 3.5H20.4zm-2.4 6.3c1.3 0 2.3 1 2.3 2.3s-1 2.3-2.3 2.3-2.3-1-2.3-2.3 1-2.3 2.3-2.3zm13.5 0c1.3 0 2.3 1 2.3 2.3s-1 2.3-2.3 2.3-2.3-1-2.3-2.3 1-2.3 2.3-2.3z"/>
  <path fill="#ffffff" fill-opacity="0.18" d="M12 24h24c1.1 0 2 .9 2 2v2c0 1.1-.9 2-2 2H12c-1.1 0-2-.9-2-2v-2c0-1.1.9-2 2-2z"/>
</svg>
